# File created by Blade
# Date/Time:  Tue Apr 07 20:40:51 2015
#---------------------------------------------------------
:version 1.10
:name HOM
:units
  mass 1.0
  length 1.000000
  angle deg
:documentation
     Acclaim Skeleton File
:root
   axis xyz
   order TX TY TZ RX RY RZ
   position 0.000000 0.000000 0.000000
   orientation 0 0 0
:bonedata
   begin
      id 1
      name Spine_dum
      direction 0.000000 1.000000 0.000000
      length 4.885285
      axis 0.0 0.0 0.0 xyz
   end
   begin
      id 2
      name LeftUpLeg_dum
      direction 1.000000 0.000000 0.000000
      length 2.672193
      axis 0.0 0.0 0.0 xyz
   end
   begin
      id 3
      name RightUpLeg_dum
      direction -1.000000 0.000000 0.000000
      length 2.672193
      axis 0.0 0.0 0.0 xyz
   end
   begin
      id 4
      name Spine
      direction 0.000000 1.000000 0.000000
      length 0.000000
      axis 0.0 0.0 0.0 xyz
      dof rx ry rz
   end
   begin
      id 5
      name Spine_dum1
      direction 0.000000 1.000000 0.000000
      length 16.494159
      axis 0.0 0.0 0.0 xyz
   end
   begin
      id 6
      name Spine_dum2
      direction 0.000000 1.000000 0.000000
      length 10.663448
      axis 0.0 0.0 0.0 xyz
   end
   begin
      id 7
      name Spine_dum3
      direction 0.000000 1.000000 0.000000
      length 10.663448
      axis 0.0 0.0 0.0 xyz
   end
   begin
      id 8
      name Head
      direction 0.000000 1.000000 0.000000
      length 4.527550
      axis 0.0 0.0 0.0 xyz
      dof rx ry rz
   end
   begin
      id 9
      name LeftShoulder
      direction 1.000000 0.000000 0.000000
      length 7.531907
      axis 0.0 0.0 -90.0 xyz
      dof rx ry rz
   end
   begin
      id 10
      name LeftArm
      direction 1.000000 0.000000 0.000000
      length 10.229199
      axis 0.0 0.0 -90.0 xyz
      dof rx ry rz
   end
   begin
      id 11
      name LeftForeArm
      direction 1.000000 0.000000 0.000000
      length 8.673495
      axis 0.0 0.0 -90.0 xyz
      dof ry rz rx
   end
   begin
      id 12
      name LeftHand
      direction 0.000000 0.000000 0.000000
      length 0.000000
      axis 0.0 0.0 -90.0 xyz
      dof rx ry rz
   end
   begin
      id 13
      name LeftHand_dum1
      direction 0.000000 0.000000 0.000000
      length 0.000000
      axis 0.0 0.0 -90.0 xyz
   end
   begin
      id 14
      name LeftHand_dum2
      direction 1.000000 0.000000 0.000000
      length 3.937000
      axis 0.0 0.0 -90.0 xyz
   end
   begin
      id 15
      name LeftHandThumb1
      direction 0.000000 0.000000 1.000000
      length 3.937000
      axis 0.0 0.0 -90.0 xyz
      dof rx rz ry
   end
   begin
      id 16
      name RightShoulder
      direction -1.000000 0.000000 0.000000
      length 7.531907
      axis 0.0 0.0 90.0 xyz
      dof rx ry rz
   end
   begin
      id 17
      name RightArm
      direction -1.000000 0.000000 0.000000
      length 10.229199
      axis 0.0 0.0 90.0 xyz
      dof rx ry rz
   end
   begin
      id 18
      name RightForeArm
      direction -1.000000 0.000000 0.000000
      length 8.673495
      axis 0.0 0.0 90.0 xyz
      dof ry rz rx
   end
   begin
      id 19
      name RightHand
      direction 0.000000 0.000000 0.000000
      length 0.000000
      axis 0.0 0.0 90.0 xyz
      dof rx ry rz
   end
   begin
      id 20
      name RightHand_dum1
      direction 0.000000 0.000000 0.000000
      length 0.000000
      axis 0.0 0.0 90.0 xyz
   end
   begin
      id 21
      name RightHand_dum2
      direction -1.000000 0.000000 0.000000
      length 3.937000
      axis 0.0 0.0 90.0 xyz
   end
   begin
      id 22
      name RightHandThumb1
      direction 0.000000 0.000000 1.000000
      length 3.937000
      axis 0.0 0.0 90.0 xyz
      dof rx rz ry
   end
   begin
      id 23
      name LeftUpLeg
      direction 0.000000 -1.000000 0.000000
      length 16.263388
      axis 0.0 0.0 0.0 xyz
      dof rx ry rz
   end
   begin
      id 24
      name LeftLeg
      direction 0.000000 -1.000000 0.000000
      length 14.328163
      axis 0.0 0.0 0.0 xyz
      dof rx ry rz
   end
   begin
      id 25
      name LeftFoot
      direction 0.000000 -0.258819 0.965926
      length 5.031290
      axis 15.0 0.0 0.0 xyz
      dof rx ry rz
   end
   begin
      id 26
      name LeftToeBase
      direction 0.000000 0.000000 1.000000
      length 2.952750
      axis 0.0 0.0 0.0 xyz
      dof rx ry rz
   end
   begin
      id 27
      name RightUpLeg
      direction 0.000000 -1.000000 0.000000
      length 16.263388
      axis 0.0 0.0 0.0 xyz
      dof rx ry rz
   end
   begin
      id 28
      name RightLeg
      direction 0.000000 -1.000000 0.000000
      length 14.328163
      axis 0.0 0.0 0.0 xyz
      dof rx ry rz
   end
   begin
      id 29
      name RightFoot
      direction 0.000000 -0.258819 0.965926
      length 5.031290
      axis 15.0 0.0 0.0 xyz
      dof rx ry rz
   end
   begin
      id 30
      name RightToeBase
      direction 0.000000 0.000000 1.000000
      length 2.952750
      axis 0.0 0.0 0.0 xyz
      dof rx ry rz
   end
:hierarchy
   begin
      root Spine_dum LeftUpLeg_dum RightUpLeg_dum
      Spine_dum Spine
      LeftUpLeg_dum LeftUpLeg
      RightUpLeg_dum RightUpLeg
      Spine Spine_dum1 Spine_dum2 Spine_dum3
      Spine_dum1 Head
      Spine_dum2 LeftShoulder
      Spine_dum3 RightShoulder
      LeftShoulder LeftArm
      LeftArm LeftForeArm
      LeftForeArm LeftHand
      LeftHand LeftHand_dum1 LeftHand_dum2
      LeftHand_dum1 LeftHandThumb1
      RightShoulder RightArm
      RightArm RightForeArm
      RightForeArm RightHand
      RightHand RightHand_dum1 RightHand_dum2
      RightHand_dum1 RightHandThumb1
      LeftUpLeg LeftLeg
      LeftLeg LeftFoot
      LeftFoot LeftToeBase
      RightUpLeg RightLeg
      RightLeg RightFoot
      RightFoot RightToeBase
   end

# File created by Blade
# Date/Time:  Tue Apr 07 20:41:02 2015
# Frame Rate: 120.000 fps
#------------------------------------------------------
:FULLY-SPECIFIED
:DEGREES
171
root 0.934899 32.717695 1.305840 7.620806 3.017121 0.417752
Spine -11.621356 -8.138159 -1.514058
Head 13.609389 -2.298551 -0.502822
LeftShoulder -20.531051 39.575948 21.722448
LeftArm 55.020132 -53.280844 -51.187377
LeftForeArm 5.092037 0.000000 -2.111109
LeftHand 5.059955 -0.000000 5.236986
LeftHandThumb1 -26.253704 0.000000 33.147579
RightShoulder -7.921849 5.256705 -31.708041
RightArm 13.440354 13.492402 39.179410
RightForeArm -11.462420 -0.000000 1.406892
RightHand 4.517373 0.000000 1.849183
RightHandThumb1 -24.326973 -0.000000 -32.862282
LeftUpLeg -1.183335 -3.337709 -0.853947
LeftLeg -4.514235 -0.000000 0.000000
LeftFoot -7.260151 11.023023 -15.715388
LeftToeBase -2.142330 -0.000000 0.000000
RightUpLeg -0.486957 -1.909823 0.218526
RightLeg -4.796983 -0.000000 0.000000
RightFoot -7.207768 -7.417025 5.840026
RightToeBase 1.578951 -0.000000 -0.000000
172
root 0.935397 32.715206 1.305945 7.590103 3.033126 0.422927
Spine -11.565342 -8.137920 -1.525883
Head 13.434700 -2.370039 -0.444169
LeftShoulder -20.544744 39.582050 21.720982
LeftArm 55.065936 -53.214970 -51.211196
LeftForeArm 5.129616 0.000000 -2.100979
LeftHand 5.044229 -0.000000 5.209772
LeftHandThumb1 -26.253704 0.000000 33.147579
RightShoulder -7.964620 5.228133 -31.680261
RightArm 13.478161 13.457301 39.161533
RightForeArm -11.486805 -0.000000 1.436174
RightHand 4.537055 -0.000000 1.817784
RightHandThumb1 -24.326973 -0.000000 -32.862282
LeftUpLeg -1.171339 -3.386284 -0.858890
LeftLeg -4.468400 -0.000000 0.000000
LeftFoot -7.326662 11.047078 -15.688441
LeftToeBase -2.118126 -0.000000 0.000000
RightUpLeg -0.451526 -1.901331 0.211110
RightLeg -4.801513 -0.000000 0.000000
RightFoot -7.222189 -7.437022 5.826701
RightToeBase 1.561665 -0.000000 -0.000000
173
root 0.934013 32.713323 1.304602 7.563888 3.055031 0.421633
Spine -11.500096 -8.156968 -1.536933
Head 13.235149 -2.304053 -0.398253
LeftShoulder -20.602271 39.595870 21.692989
LeftArm 55.092648 -53.112717 -51.177113
LeftForeArm 5.108832 0.000000 -2.111774
LeftHand 5.049976 -0.000000 4.970225
LeftHandThumb1 -26.253704 0.000000 33.147579
RightShoulder -8.017590 5.246608 -31.652973
RightArm 13.496728 13.344528 39.137347
RightForeArm -11.499314 -0.000000 1.475879
RightHand 4.527626 -0.000000 1.874454
RightHandThumb1 -24.326973 -0.000000 -32.862282
LeftUpLeg -1.174033 -3.424903 -0.852222
LeftLeg -4.412015 -0.000000 0.000000
LeftFoot -7.384136 11.042012 -15.693031
LeftToeBase -2.122789 -0.000000 0.000000
RightUpLeg -0.436223 -1.908872 0.217219
RightLeg -4.780063 -0.000000 0.000000
RightFoot -7.246466 -7.449678 5.793637
RightToeBase 1.561954 -0.000000 -0.000000
174
root 0.934921 32.711580 1.304245 7.532949 3.078448 0.432071
Spine -11.444120 -8.151367 -1.558671
Head 13.072683 -2.369373 -0.330016
LeftShoulder -20.600561 39.596369 21.692364
LeftArm 55.108329 -53.024761 -51.141673
LeftForeArm 5.124191 -0.000000 -2.119681
LeftHand 5.112079 -0.000000 4.833214
LeftHandThumb1 -26.253704 0.000000 33.147579
RightShoulder -8.068297 5.179600 -31.624230
RightArm 13.555875 13.325124 39.146935
RightForeArm -11.442949 -0.000000 1.495740
RightHand 4.484131 -0.000000 1.901798
RightHandThumb1 -24.326973 -0.000000 -32.862282
LeftUpLeg -1.171868 -3.448991 -0.862643
LeftLeg -4.353748 -0.000000 0.000000
LeftFoot -7.433426 11.023425 -15.680378
LeftToeBase -2.119137 -0.000000 0.000000
RightUpLeg -0.402938 -1.915253 0.206432
RightLeg -4.781448 -0.000000 0.000000
RightFoot -7.260469 -7.469440 5.770885
RightToeBase 1.561132 -0.000000 -0.000000
